<svg width="100" height="98" viewBox="0 0 100 98" fill="none" xmlns="http://www.w3.org/2000/svg">
<g filter="url(#filter0_d_347_1391)">
<path d="M43.0928 11.2368C44.2908 9.58805 46.7483 9.58799 47.9463 11.2368C48.1315 11.4917 48.2658 11.8268 48.3828 12.1479C48.5091 12.4947 48.659 12.956 48.8477 13.5366L54.0938 29.6821C54.2118 30.0453 54.2395 30.1202 54.2666 30.1733C54.412 30.4583 54.685 30.6565 55.001 30.7065C55.0599 30.7159 55.1389 30.7192 55.5205 30.7192H72.498C73.1084 30.7192 73.5932 30.7189 73.9619 30.7319C74.3036 30.744 74.6642 30.7683 74.9639 30.8657C76.9019 31.4956 77.6614 33.8332 76.4639 35.4819C76.2787 35.7368 76.0017 35.9686 75.7324 36.1792C75.4417 36.4065 75.0487 36.6913 74.5547 37.0503L60.8203 47.0288C60.512 47.2528 60.4494 47.3021 60.4072 47.3442C60.1809 47.5706 60.0769 47.8923 60.127 48.2085C60.1363 48.2673 60.1576 48.3441 60.2754 48.7065L65.5215 64.8521C65.7102 65.4328 65.8603 65.8947 65.9619 66.2495C66.056 66.578 66.1435 66.9277 66.1436 67.2427C66.1436 69.2808 64.1551 70.726 62.2168 70.0962C61.9171 69.9988 61.6116 69.8068 61.3281 69.6157C61.0221 69.4094 60.6298 69.1241 60.1357 68.7651L46.4014 58.7866C46.0926 58.5623 46.0267 58.5178 45.9736 58.4907C45.6885 58.3454 45.3506 58.3455 45.0654 58.4907C45.0123 58.5178 44.9466 58.5622 44.6377 58.7866L30.9033 68.7651C30.4094 69.124 30.0169 69.4095 29.7109 69.6157C29.4275 69.8067 29.1219 69.9988 28.8223 70.0962C26.8839 70.726 24.8945 69.2808 24.8945 67.2427C24.8946 66.9277 24.9831 66.5781 25.0771 66.2495C25.1788 65.8947 25.3289 65.4328 25.5176 64.8521L30.7637 48.7065C30.8815 48.344 30.9028 48.2673 30.9121 48.2085C30.9622 47.8923 30.8582 47.5706 30.6318 47.3442C30.5897 47.3021 30.5275 47.2531 30.2188 47.0288L16.4834 37.0503C15.9896 36.6915 15.5973 36.4065 15.3066 36.1792C15.0373 35.9686 14.7604 35.7369 14.5752 35.4819C13.3774 33.8331 14.1369 31.4955 16.0752 30.8657C16.3748 30.7684 16.7346 30.744 17.0762 30.7319C17.445 30.7189 17.9303 30.7192 18.541 30.7192H35.5176C35.8995 30.7192 35.9792 30.7159 36.0381 30.7065C36.354 30.6564 36.6272 30.4583 36.7725 30.1733C36.7995 30.1202 36.8263 30.0453 36.9443 29.6821L42.1904 13.5366C42.3791 12.9561 42.529 12.4947 42.6553 12.1479C42.7723 11.8267 42.9075 11.4918 43.0928 11.2368Z" fill="url(#paint0_linear_347_1391)"/>
<path d="M43.0928 11.2368C44.2908 9.58805 46.7483 9.58799 47.9463 11.2368C48.1315 11.4917 48.2658 11.8268 48.3828 12.1479C48.5091 12.4947 48.659 12.956 48.8477 13.5366L54.0938 29.6821C54.2118 30.0453 54.2395 30.1202 54.2666 30.1733C54.412 30.4583 54.685 30.6565 55.001 30.7065C55.0599 30.7159 55.1389 30.7192 55.5205 30.7192H72.498C73.1084 30.7192 73.5932 30.7189 73.9619 30.7319C74.3036 30.744 74.6642 30.7683 74.9639 30.8657C76.9019 31.4956 77.6614 33.8332 76.4639 35.4819C76.2787 35.7368 76.0017 35.9686 75.7324 36.1792C75.4417 36.4065 75.0487 36.6913 74.5547 37.0503L60.8203 47.0288C60.512 47.2528 60.4494 47.3021 60.4072 47.3442C60.1809 47.5706 60.0769 47.8923 60.127 48.2085C60.1363 48.2673 60.1576 48.3441 60.2754 48.7065L65.5215 64.8521C65.7102 65.4328 65.8603 65.8947 65.9619 66.2495C66.056 66.578 66.1435 66.9277 66.1436 67.2427C66.1436 69.2808 64.1551 70.726 62.2168 70.0962C61.9171 69.9988 61.6116 69.8068 61.3281 69.6157C61.0221 69.4094 60.6298 69.1241 60.1357 68.7651L46.4014 58.7866C46.0926 58.5623 46.0267 58.5178 45.9736 58.4907C45.6885 58.3454 45.3506 58.3455 45.0654 58.4907C45.0123 58.5178 44.9466 58.5622 44.6377 58.7866L30.9033 68.7651C30.4094 69.124 30.0169 69.4095 29.7109 69.6157C29.4275 69.8067 29.1219 69.9988 28.8223 70.0962C26.8839 70.726 24.8945 69.2808 24.8945 67.2427C24.8946 66.9277 24.9831 66.5781 25.0771 66.2495C25.1788 65.8947 25.3289 65.4328 25.5176 64.8521L30.7637 48.7065C30.8815 48.344 30.9028 48.2673 30.9121 48.2085C30.9622 47.8923 30.8582 47.5706 30.6318 47.3442C30.5897 47.3021 30.5275 47.2531 30.2188 47.0288L16.4834 37.0503C15.9896 36.6915 15.5973 36.4065 15.3066 36.1792C15.0373 35.9686 14.7604 35.7369 14.5752 35.4819C13.3774 33.8331 14.1369 31.4955 16.0752 30.8657C16.3748 30.7684 16.7346 30.744 17.0762 30.7319C17.445 30.7189 17.9303 30.7192 18.541 30.7192H35.5176C35.8995 30.7192 35.9792 30.7159 36.0381 30.7065C36.354 30.6564 36.6272 30.4583 36.7725 30.1733C36.7995 30.1202 36.8263 30.0453 36.9443 29.6821L42.1904 13.5366C42.3791 12.9561 42.529 12.4947 42.6553 12.1479C42.7723 11.8267 42.9075 11.4918 43.0928 11.2368Z" stroke="white" stroke-width="2"/>
<path d="M43.0928 11.2368C44.2908 9.58805 46.7483 9.58799 47.9463 11.2368C48.1315 11.4917 48.2658 11.8268 48.3828 12.1479C48.5091 12.4947 48.659 12.956 48.8477 13.5366L54.0938 29.6821C54.2118 30.0453 54.2395 30.1202 54.2666 30.1733C54.412 30.4583 54.685 30.6565 55.001 30.7065C55.0599 30.7159 55.1389 30.7192 55.5205 30.7192H72.498C73.1084 30.7192 73.5932 30.7189 73.9619 30.7319C74.3036 30.744 74.6642 30.7683 74.9639 30.8657C76.9019 31.4956 77.6614 33.8332 76.4639 35.4819C76.2787 35.7368 76.0017 35.9686 75.7324 36.1792C75.4417 36.4065 75.0487 36.6913 74.5547 37.0503L60.8203 47.0288C60.512 47.2528 60.4494 47.3021 60.4072 47.3442C60.1809 47.5706 60.0769 47.8923 60.127 48.2085C60.1363 48.2673 60.1576 48.3441 60.2754 48.7065L65.5215 64.8521C65.7102 65.4328 65.8603 65.8947 65.9619 66.2495C66.056 66.578 66.1435 66.9277 66.1436 67.2427C66.1436 69.2808 64.1551 70.726 62.2168 70.0962C61.9171 69.9988 61.6116 69.8068 61.3281 69.6157C61.0221 69.4094 60.6298 69.1241 60.1357 68.7651L46.4014 58.7866C46.0926 58.5623 46.0267 58.5178 45.9736 58.4907C45.6885 58.3454 45.3506 58.3455 45.0654 58.4907C45.0123 58.5178 44.9466 58.5622 44.6377 58.7866L30.9033 68.7651C30.4094 69.124 30.0169 69.4095 29.7109 69.6157C29.4275 69.8067 29.1219 69.9988 28.8223 70.0962C26.8839 70.726 24.8945 69.2808 24.8945 67.2427C24.8946 66.9277 24.9831 66.5781 25.0771 66.2495C25.1788 65.8947 25.3289 65.4328 25.5176 64.8521L30.7637 48.7065C30.8815 48.344 30.9028 48.2673 30.9121 48.2085C30.9622 47.8923 30.8582 47.5706 30.6318 47.3442C30.5897 47.3021 30.5275 47.2531 30.2188 47.0288L16.4834 37.0503C15.9896 36.6915 15.5973 36.4065 15.3066 36.1792C15.0373 35.9686 14.7604 35.7369 14.5752 35.4819C13.3774 33.8331 14.1369 31.4955 16.0752 30.8657C16.3748 30.7684 16.7346 30.744 17.0762 30.7319C17.445 30.7189 17.9303 30.7192 18.541 30.7192H35.5176C35.8995 30.7192 35.9792 30.7159 36.0381 30.7065C36.354 30.6564 36.6272 30.4583 36.7725 30.1733C36.7995 30.1202 36.8263 30.0453 36.9443 29.6821L42.1904 13.5366C42.3791 12.9561 42.529 12.4947 42.6553 12.1479C42.7723 11.8267 42.9075 11.4918 43.0928 11.2368Z" stroke="#82501D" stroke-width="2"/>
<path d="M55.89 44.0022C61.9894 41.364 68.2957 40.8816 73.5438 42.1915C78.7909 43.5012 82.9256 46.5811 84.8542 51.0398C86.7826 55.4985 86.1954 60.62 83.5567 65.3405C80.9174 70.0621 76.2475 74.3274 70.1481 76.9657C64.0485 79.604 57.7416 80.0867 52.4933 78.7767C47.2464 77.467 43.112 74.3878 41.1833 69.9293C39.2547 65.4706 39.8417 60.3484 42.4804 55.6278C45.1197 50.9061 49.7904 46.6405 55.89 44.0022Z" fill="#FBF7EE" stroke="#82501D" stroke-width="2"/>
<line x1="49.3558" y1="48.4173" x2="55.509" y2="62.6429" stroke="#82501D" stroke-width="2" stroke-linecap="round"/>
<line x1="61.4017" y1="43.2069" x2="67.5549" y2="57.4324" stroke="#82501D" stroke-width="2" stroke-linecap="round"/>
</g>
<defs>
<filter id="filter0_d_347_1391" x="0" y="0" width="99.9907" height="97.4778" filterUnits="userSpaceOnUse" color-interpolation-filters="sRGB">
<feFlood flood-opacity="0" result="BackgroundImageFix"/>
<feColorMatrix in="SourceAlpha" type="matrix" values="0 0 0 0 0 0 0 0 0 0 0 0 0 0 0 0 0 0 127 0" result="hardAlpha"/>
<feOffset dy="4"/>
<feGaussianBlur stdDeviation="6.5"/>
<feComposite in2="hardAlpha" operator="out"/>
<feColorMatrix type="matrix" values="0 0 0 0 1 0 0 0 0 0.852341 0 0 0 0 0.429808 0 0 0 1 0"/>
<feBlend mode="normal" in2="BackgroundImageFix" result="effect1_dropShadow_347_1391"/>
<feBlend mode="normal" in="SourceGraphic" in2="effect1_dropShadow_347_1391" result="shape"/>
</filter>
<linearGradient id="paint0_linear_347_1391" x1="9.0625" y1="42.9847" x2="81.9762" y2="42.9847" gradientUnits="userSpaceOnUse">
<stop stop-color="#FFFDB8"/>
<stop offset="0.25" stop-color="#FDF68C"/>
<stop offset="0.5" stop-color="#F4CD2A"/>
<stop offset="0.75" stop-color="#EDA323"/>
<stop offset="1" stop-color="#D28D0D"/>
</linearGradient>
</defs>
</svg>
