<svg width="44" height="42" viewBox="0 0 44 42" fill="none" xmlns="http://www.w3.org/2000/svg">
<path d="M19.1963 2.23682C20.3943 0.587964 22.8518 0.587964 24.0498 2.23682C24.235 2.49176 24.3703 2.82672 24.4873 3.14795C24.6136 3.49466 24.7635 3.95612 24.9521 4.53662L27.626 12.7661C27.7438 13.1289 27.7708 13.2032 27.7979 13.2563C27.9431 13.5415 28.2162 13.7404 28.5322 13.7905C28.5911 13.7999 28.6709 13.8022 29.0527 13.8022H37.7051C38.3158 13.8022 38.8011 13.8019 39.1699 13.8149C39.5116 13.827 39.8712 13.8524 40.1709 13.9497C42.1092 14.5795 42.8689 16.9171 41.6709 18.5659C41.4857 18.8208 41.2087 19.0517 40.9395 19.2622C40.6487 19.4895 40.2567 19.7753 39.7627 20.1343L32.7617 25.2202C32.453 25.4445 32.3908 25.4935 32.3486 25.5356C32.1224 25.762 32.0183 26.0829 32.0684 26.3989C32.0777 26.4578 32.0989 26.534 32.2168 26.897L34.8906 35.1265C35.0793 35.7073 35.2294 36.1691 35.3311 36.5239C35.4251 36.8525 35.5137 37.2021 35.5137 37.5171C35.5137 39.5552 33.5243 41.0004 31.5859 40.3706C31.2863 40.2732 30.9807 40.0811 30.6973 39.8901C30.3913 39.6839 29.9988 39.3984 29.5049 39.0396L22.5049 33.9536C22.1959 33.7292 22.1303 33.6848 22.0771 33.6577C21.792 33.5124 21.4541 33.5124 21.1689 33.6577C21.1158 33.6848 21.0502 33.7292 20.7412 33.9536L13.7412 39.0396C13.2473 39.3984 12.8548 39.6839 12.5488 39.8901C12.2654 40.0811 11.9597 40.2732 11.6602 40.3706C9.72181 41.0004 7.73242 39.5552 7.73242 37.5171C7.73244 37.2021 7.82095 36.8525 7.91504 36.5239C8.01664 36.1691 8.16676 35.7073 8.35547 35.1265L11.0293 26.897C11.1472 26.534 11.1684 26.4578 11.1777 26.3989C11.2278 26.0829 11.1237 25.762 10.8975 25.5356C10.8553 25.4935 10.7931 25.4445 10.4844 25.2202L3.4834 20.1343C2.98935 19.7753 2.59739 19.4895 2.30664 19.2622C2.03738 19.0517 1.76042 18.8208 1.5752 18.5659C0.377229 16.9171 1.13685 14.5795 3.0752 13.9497C3.37487 13.8524 3.73454 13.827 4.07617 13.8149C4.44501 13.8019 4.93033 13.8022 5.54102 13.8022H14.1934C14.5752 13.8022 14.655 13.7999 14.7139 13.7905C15.0299 13.7404 15.303 13.5415 15.4482 13.2563C15.4753 13.2032 15.5022 13.1289 15.6201 12.7661L18.2939 4.53662C18.4826 3.95612 18.6325 3.49465 18.7588 3.14795C18.8758 2.82672 19.0111 2.49176 19.1963 2.23682Z" fill="url(#paint0_linear_347_1380)"/>
<path d="M19.1963 2.23682C20.3943 0.587964 22.8518 0.587964 24.0498 2.23682C24.235 2.49176 24.3703 2.82672 24.4873 3.14795C24.6136 3.49466 24.7635 3.95612 24.9521 4.53662L27.626 12.7661C27.7438 13.1289 27.7708 13.2032 27.7979 13.2563C27.9431 13.5415 28.2162 13.7404 28.5322 13.7905C28.5911 13.7999 28.6709 13.8022 29.0527 13.8022H37.7051C38.3158 13.8022 38.8011 13.8019 39.1699 13.8149C39.5116 13.827 39.8712 13.8524 40.1709 13.9497C42.1092 14.5795 42.8689 16.9171 41.6709 18.5659C41.4857 18.8208 41.2087 19.0517 40.9395 19.2622C40.6487 19.4895 40.2567 19.7753 39.7627 20.1343L32.7617 25.2202C32.453 25.4445 32.3908 25.4935 32.3486 25.5356C32.1224 25.762 32.0183 26.0829 32.0684 26.3989C32.0777 26.4578 32.0989 26.534 32.2168 26.897L34.8906 35.1265C35.0793 35.7073 35.2294 36.1691 35.3311 36.5239C35.4251 36.8525 35.5137 37.2021 35.5137 37.5171C35.5137 39.5552 33.5243 41.0004 31.5859 40.3706C31.2863 40.2732 30.9807 40.0811 30.6973 39.8901C30.3913 39.6839 29.9988 39.3984 29.5049 39.0396L22.5049 33.9536C22.1959 33.7292 22.1303 33.6848 22.0771 33.6577C21.792 33.5124 21.4541 33.5124 21.1689 33.6577C21.1158 33.6848 21.0502 33.7292 20.7412 33.9536L13.7412 39.0396C13.2473 39.3984 12.8548 39.6839 12.5488 39.8901C12.2654 40.0811 11.9597 40.2732 11.6602 40.3706C9.72181 41.0004 7.73242 39.5552 7.73242 37.5171C7.73244 37.2021 7.82095 36.8525 7.91504 36.5239C8.01664 36.1691 8.16676 35.7073 8.35547 35.1265L11.0293 26.897C11.1472 26.534 11.1684 26.4578 11.1777 26.3989C11.2278 26.0829 11.1237 25.762 10.8975 25.5356C10.8553 25.4935 10.7931 25.4445 10.4844 25.2202L3.4834 20.1343C2.98935 19.7753 2.59739 19.4895 2.30664 19.2622C2.03738 19.0517 1.76042 18.8208 1.5752 18.5659C0.377229 16.9171 1.13685 14.5795 3.0752 13.9497C3.37487 13.8524 3.73454 13.827 4.07617 13.8149C4.44501 13.8019 4.93033 13.8022 5.54102 13.8022H14.1934C14.5752 13.8022 14.655 13.7999 14.7139 13.7905C15.0299 13.7404 15.303 13.5415 15.4482 13.2563C15.4753 13.2032 15.5022 13.1289 15.6201 12.7661L18.2939 4.53662C18.4826 3.95612 18.6325 3.49465 18.7588 3.14795C18.8758 2.82672 19.0111 2.49176 19.1963 2.23682Z" stroke="white" stroke-width="2"/>
<path d="M19.1963 2.23682C20.3943 0.587964 22.8518 0.587964 24.0498 2.23682C24.235 2.49176 24.3703 2.82672 24.4873 3.14795C24.6136 3.49466 24.7635 3.95612 24.9521 4.53662L27.626 12.7661C27.7438 13.1289 27.7708 13.2032 27.7979 13.2563C27.9431 13.5415 28.2162 13.7404 28.5322 13.7905C28.5911 13.7999 28.6709 13.8022 29.0527 13.8022H37.7051C38.3158 13.8022 38.8011 13.8019 39.1699 13.8149C39.5116 13.827 39.8712 13.8524 40.1709 13.9497C42.1092 14.5795 42.8689 16.9171 41.6709 18.5659C41.4857 18.8208 41.2087 19.0517 40.9395 19.2622C40.6487 19.4895 40.2567 19.7753 39.7627 20.1343L32.7617 25.2202C32.453 25.4445 32.3908 25.4935 32.3486 25.5356C32.1224 25.762 32.0183 26.0829 32.0684 26.3989C32.0777 26.4578 32.0989 26.534 32.2168 26.897L34.8906 35.1265C35.0793 35.7073 35.2294 36.1691 35.3311 36.5239C35.4251 36.8525 35.5137 37.2021 35.5137 37.5171C35.5137 39.5552 33.5243 41.0004 31.5859 40.3706C31.2863 40.2732 30.9807 40.0811 30.6973 39.8901C30.3913 39.6839 29.9988 39.3984 29.5049 39.0396L22.5049 33.9536C22.1959 33.7292 22.1303 33.6848 22.0771 33.6577C21.792 33.5124 21.4541 33.5124 21.1689 33.6577C21.1158 33.6848 21.0502 33.7292 20.7412 33.9536L13.7412 39.0396C13.2473 39.3984 12.8548 39.6839 12.5488 39.8901C12.2654 40.0811 11.9597 40.2732 11.6602 40.3706C9.72181 41.0004 7.73242 39.5552 7.73242 37.5171C7.73244 37.2021 7.82095 36.8525 7.91504 36.5239C8.01664 36.1691 8.16676 35.7073 8.35547 35.1265L11.0293 26.897C11.1472 26.534 11.1684 26.4578 11.1777 26.3989C11.2278 26.0829 11.1237 25.762 10.8975 25.5356C10.8553 25.4935 10.7931 25.4445 10.4844 25.2202L3.4834 20.1343C2.98935 19.7753 2.59739 19.4895 2.30664 19.2622C2.03738 19.0517 1.76042 18.8208 1.5752 18.5659C0.377229 16.9171 1.13685 14.5795 3.0752 13.9497C3.37487 13.8524 3.73454 13.827 4.07617 13.8149C4.44501 13.8019 4.93033 13.8022 5.54102 13.8022H14.1934C14.5752 13.8022 14.655 13.7999 14.7139 13.7905C15.0299 13.7404 15.303 13.5415 15.4482 13.2563C15.4753 13.2032 15.5022 13.1289 15.6201 12.7661L18.2939 4.53662C18.4826 3.95612 18.6325 3.49465 18.7588 3.14795C18.8758 2.82672 19.0111 2.49176 19.1963 2.23682Z" stroke="#82501D" stroke-width="2"/>
<defs>
<linearGradient id="paint0_linear_347_1380" x1="-3.37695" y1="22.5278" x2="46.623" y2="22.5278" gradientUnits="userSpaceOnUse">
<stop stop-color="#FFFDB8"/>
<stop offset="0.25" stop-color="#FDF68C"/>
<stop offset="0.5" stop-color="#F4CD2A"/>
<stop offset="0.75" stop-color="#EDA323"/>
<stop offset="1" stop-color="#D28D0D"/>
</linearGradient>
</defs>
</svg>
